
[IMG]http://img714.imageshack.us/img714/7392/sdrbenner5.jpg[/IMG]







[IMG]http://img831.imageshack.us/img831/9486/25221985.jpg[/IMG]






[IMG]http://myph.us/pics/64623_8we5inyn.png[/IMG]

General
Complete name                    : Men in Black Pack HDDvDrip (Hindi)Current_HD

Format                           : Matroska
File size                        : 326 MiB
Duration                         : 1h 33mn
Overall bit rate                 : 485 Kbps
Encoded date                     : UTC 2010-01-21 17:42:59
Writing application              : mkvmerge v3.0.0 ('Hang up your Hang-Ups') built on Dec 12 2009 15:20:35
Writing library                  : libebml v0.7.9 + libmatroska v0.8.1

[IMG]http://img518.imageshack.us/img518/241/windowsmediaplayerfile.png[/IMG]

Video
ID                               : 1
Format                           : AVC
Format/Info                      : Advanced Video Codec
Format profile                   : High@L3.0
Format settings, CABAC           : Yes
Format settings, ReFrames        : 8 frames
Muxing mode                      : Container profile=Unknown@3.0
Codec ID                         : V_MPEG4/ISO/AVC
Duration                         : 1h 33mn
Nominal bit rate                 : 432 Kbps
Width                            : 628 pixels
Height                           : 352 pixels
Display aspect ratio             : 16:9
Frame rate                       : 25.000 fps
Original frame rate              : 23.976 fps
Color space                      : YUV
Chroma subsampling               : 4:2:0
Bit depth                        : 8 bits
Scan type                        : Progressive
Bits/(Pixel*Frame)               : 0.078
Writing library                  : x264 core 61 r967M 869d5e4
Encoding settings                : cabac=1 / ref=8 / deblock=1:-2:-1 / analyse=0x3:0x133 / me=umh / subme=6 / psy_rd=1.0:1.0 / brdo=1 / mixed_ref=1 / me_range=16 / chroma_me=1 / trellis=1 / 8x8dct=1 / cqm=0 / deadzone=21,11 / chroma_qp_offset=-4 / threads=3 / nr=0 / decimate=1 / mbaff=0 / bframes=16 / b_pyramid=1 / b_adapt=1 / b_bias=0 / direct=3 / wpredb=1 / bime=1 / keyint=250 / keyint_min=25 / scenecut=40(pre) / rc=2pass / bitrate=432 / ratetol=1.0 / qcomp=1.00 / qpmin=10 / qpmax=51 / qpstep=4 / cplxblur=20.0 / qblur=0.5 / ip_ratio=1.40 / pb_ratio=1.30 / aq=2:1.00
Language                         : Hindi


[IMG]http://img33.imageshack.us/img33/9892/musicfile.png[/IMG]

Audio
ID                               : 2
Format                           : AAC
Format/Info                      : Advanced Audio Codec
Format version                   : Version 4
Format profile                   : LC
Format settings, SBR             : No
Codec ID                         : A_AAC
Duration                         : 1h 33mn
Channel(s)                       : 2 channels
Channel positions                : Front: L R
Sampling rate                    : 48.0 KHz
Video delay                      : 20s 500ms


[IMG]http://myph.us/pics/64623_8we5inyn.png[/IMG]
General
Complete name                    : Men in Black Pack HDDvDrip (Hindi)Current_HD
Format                           : AVI
Format/Info                      : Audio Video Interleave
Format profile                   : OpenDML
File size                        : 697 MiB
Duration                         : 1h 24mn
Overall bit rate                 : 1 153 Kbps

[IMG]http://img518.imageshack.us/img518/241/windowsmediaplayerfile.png[/IMG]

Video
ID                               : 0
Format                           : MPEG-4 Visual
Format profile                   : Advanced Simple@L5
Format settings, BVOP            : Yes
Format settings, QPel            : No
Format settings, GMC             : No warppoints
Format settings, Matrix          : Default (H.263)
Codec ID                         : DX50
Codec ID/Hint                    : DivX 5
Duration                         : 1h 24mn
Bit rate                         : 1 021 Kbps
Width                            : 696 pixels
Height                           : 364 pixels
Display aspect ratio             : 1.912
Frame rate                       : 25.000 fps
Color space                      : YUV
Chroma subsampling               : 4:2:0
Bit depth                        : 8 bits
Scan type                        : Progressive
Bits/(Pixel*Frame)               : 0.161
Stream size                      : 617 MiB (89%)
Writing library                  : XviD 1.0.3 (UTC 2004-12-20)

[IMG]http://img33.imageshack.us/img33/9892/musicfile.png[/IMG]

Audio
ID                               : 1
Format                           : MPEG Audio
Format version                   : Version 1
Format profile                   : Layer 3
Mode                             : Joint stereo
Codec ID                         : 55
Codec ID/Hint                    : MP3
Duration                         : 1h 24mn
Bit rate mode                    : Constant
Bit rate                         : 128 Kbps
Channel(s)                       : 2 channels
Sampling rate                    : 48.0 KHz
Stream size                      : 77.4 MiB (11%)
Alignment                        : Aligned on interleaves
Interleave, duration             : 717 ms (17.92 video frames)
Interleave, preload duration     : 216 ms
Title                            : CurrentHD


[IMG]http://img402.imageshack.us/img402/3700/qq4wur.jpg[/IMG]
[IMG]http://img214.imageshack.us/img214/748/s27429.jpg[/IMG]
[IMG]http://img704.imageshack.us/img704/667/81304242.jpg[/IMG]
[IMG]http://img46.imageshack.us/img46/693/22563021.jpg[/IMG]
[IMG]http://img23.imageshack.us/img23/1092/69481852.jpg[/IMG]
[IMG]http://img545.imageshack.us/img545/6154/78548130.jpg[/IMG]
[IMG]http://img709.imageshack.us/img709/2927/58680500.jpg[/IMG]

